<svg width="103" height="100" viewBox="0 0 103 100" fill="none" xmlns="http://www.w3.org/2000/svg">
<path d="M0.0742188 0.886719H52.9369C80.1695 0.886719 102.246 22.9631 102.246 50.1956C102.246 77.4281 80.1694 99.5045 52.9369 99.5045H51.16C22.9461 99.5045 0.0742188 76.6326 0.0742188 48.4187V0.886719Z" fill="#009BC0" fill-opacity="0.12"/>
<path d="M9.11719 9.92773H52.6236C75.0363 9.92773 93.2053 28.0968 93.2053 50.5094C93.2053 72.922 75.0363 91.091 52.6236 91.091H51.1612C27.9409 91.091 9.11719 72.2673 9.11719 49.047V9.92773Z" fill="#009BC0"/>
<path d="M32.0625 35.0962L49.3635 30.0469L66.6471 35.0962V45.4505C66.6464 50.7569 64.9763 55.9286 61.8734 60.2331C58.7704 64.5377 54.3918 67.7569 49.3577 69.4349C44.3218 67.7576 39.9413 64.5381 36.8372 60.2325C33.733 55.9269 32.0626 50.7536 32.0625 45.4457V35.0962Z" stroke="#F7F7F7" stroke-width="3.84274" stroke-linejoin="round"/>
<path d="M40.707 48.2995L47.4318 55.0243L58.96 43.4961" stroke="#F7F7F7" stroke-width="3.84274" stroke-linecap="round" stroke-linejoin="round"/>
</svg>
