<svg width="40" height="40" viewBox="0 0 40 40" fill="none" xmlns="http://www.w3.org/2000/svg">
<path d="M11.92 7.305L11.945 7.29L12.06 7.2225C12.1617 7.16083 12.3158 7.075 12.5225 6.965C12.935 6.7475 13.535 6.455 14.2775 6.165C15.775 5.57 17.8025 5 20 5C22.1975 5 24.225 5.575 25.7225 6.1625C26.4856 6.46343 27.2266 6.81763 27.94 7.2225C27.9917 7.25083 28.0292 7.27333 28.0525 7.29L28.0775 7.305H28.08C28.3597 7.47517 28.6949 7.52883 29.0137 7.45446C29.3325 7.38009 29.6094 7.18362 29.785 6.90727C29.9605 6.63092 30.0205 6.29675 29.9523 5.97657C29.8841 5.6564 29.6929 5.37577 29.42 5.195L29.4125 5.19L29.4 5.1825L29.355 5.155L29.2025 5.0625C28.3784 4.59396 27.5221 4.18459 26.64 3.8375C24.96 3.175 22.6125 2.5 20 2.5C17.3875 2.5 15.0375 3.175 13.3625 3.8375C12.4795 4.18448 11.6224 4.59385 10.7975 5.0625L10.645 5.155L10.6 5.18L10.5875 5.19L10.5825 5.1925C10.3024 5.36986 10.1042 5.65125 10.0315 5.97475C9.95882 6.29825 10.0176 6.63736 10.195 6.9175C10.3724 7.19763 10.6537 7.39584 10.9772 7.46851C11.3007 7.54118 11.6399 7.48236 11.92 7.305ZM10 10C8.67392 10 7.40215 10.5268 6.46447 11.4645C5.52678 12.4021 5 13.6739 5 15V25C5 26.3261 5.52678 27.5979 6.46447 28.5355C7.40215 29.4732 8.67392 30 10 30H21.25C22.5761 30 23.8479 29.4732 24.7855 28.5355C25.7232 27.5979 26.25 26.3261 26.25 25V24.655L33.13 28.585C33.3201 28.6936 33.5353 28.7503 33.7542 28.7496C33.9731 28.7488 34.188 28.6906 34.3773 28.5808C34.5667 28.4709 34.7238 28.3133 34.8331 28.1236C34.9424 27.9339 34.9999 27.7189 35 27.5V12.5C34.9999 12.2811 34.9424 12.0661 34.8331 11.8764C34.7238 11.6867 34.5667 11.5291 34.3773 11.4192C34.188 11.3094 33.9731 11.2512 33.7542 11.2504C33.5353 11.2497 33.3201 11.3064 33.13 11.415L26.25 15.345V15C26.25 13.6739 25.7232 12.4021 24.7855 11.4645C23.8479 10.5268 22.5761 10 21.25 10H10ZM26.25 18.225L32.5 14.655V25.345L26.25 21.775V18.225ZM7.5 15C7.5 14.337 7.76339 13.7011 8.23223 13.2322C8.70107 12.7634 9.33696 12.5 10 12.5H21.25C21.913 12.5 22.5489 12.7634 23.0178 13.2322C23.4866 13.7011 23.75 14.337 23.75 15V25C23.75 25.663 23.4866 26.2989 23.0178 26.7678C22.5489 27.2366 21.913 27.5 21.25 27.5H10C9.33696 27.5 8.70107 27.2366 8.23223 26.7678C7.76339 26.2989 7.5 25.663 7.5 25V15ZM11.9225 32.6975L11.92 32.695C11.6403 32.5248 11.3051 32.4712 10.9863 32.5455C10.6675 32.6199 10.3905 32.8164 10.215 33.0927C10.0395 33.3691 9.97946 33.7032 10.0477 34.0234C10.1159 34.3436 10.3071 34.6242 10.58 34.805L10.5875 34.81L10.6 34.8175L10.645 34.845C10.68 34.8683 10.7308 34.8992 10.7975 34.9375C10.9308 35.0142 11.1175 35.1175 11.3575 35.2475C11.835 35.4975 12.52 35.83 13.3625 36.1625C15.0375 36.8225 17.3875 37.5 20 37.5C22.615 37.5 24.9625 36.825 26.6375 36.1625C27.5205 35.8155 28.3776 35.4062 29.2025 34.9375L29.355 34.845L29.4 34.82L29.4125 34.81L29.4175 34.8075C29.6976 34.6298 29.8982 34.3481 29.9706 34.0244C30.0431 33.7006 29.9839 33.3614 29.8062 33.0812C29.6286 32.8011 29.3469 32.603 29.0231 32.5306C28.6994 32.4582 28.3601 32.5173 28.08 32.695L28.055 32.7125L27.94 32.7775C27.8383 32.8392 27.6842 32.925 27.4775 33.035C26.9077 33.3337 26.3218 33.6008 25.7225 33.835C24.225 34.43 22.1975 35 20 35C17.8025 35 15.775 34.425 14.2775 33.8375C13.5144 33.5366 12.7734 33.1824 12.06 32.7775L11.9475 32.71L11.9225 32.6975Z" fill="#374151"/>
</svg>
